<svg width="16" height="16" viewBox="0 0 16 16" fill="none" xmlns="http://www.w3.org/2000/svg">
<g id="icon-placeholder">
<g id="Shape">
<path d="M3.33398 1.33398C2.80355 1.33398 2.29484 1.5447 1.91977 1.91977C1.5447 2.29484 1.33398 2.80355 1.33398 3.33398V5.33398C1.33398 5.70217 1.63246 6.00065 2.00065 6.00065C2.36884 6.00065 2.66732 5.70217 2.66732 5.33398V3.33398C2.66732 3.15717 2.73756 2.9876 2.86258 2.86258C2.9876 2.73756 3.15717 2.66732 3.33398 2.66732H5.33398C5.70217 2.66732 6.00065 2.36884 6.00065 2.00065C6.00065 1.63246 5.70217 1.33398 5.33398 1.33398H3.33398Z" fill="#2D3648"/>
<path d="M10.6673 1.33398C10.2991 1.33398 10.0007 1.63246 10.0007 2.00065C10.0007 2.36884 10.2991 2.66732 10.6673 2.66732H12.6673C12.8441 2.66732 13.0137 2.73756 13.1387 2.86258C13.2637 2.9876 13.334 3.15717 13.334 3.33398V5.33398C13.334 5.70217 13.6325 6.00065 14.0007 6.00065C14.3688 6.00065 14.6673 5.70217 14.6673 5.33398V3.33398C14.6673 2.80355 14.4566 2.29484 14.0815 1.91977C13.7065 1.5447 13.1978 1.33398 12.6673 1.33398H10.6673Z" fill="#2D3648"/>
<path d="M2.66732 10.6673C2.66732 10.2991 2.36884 10.0007 2.00065 10.0007C1.63246 10.0007 1.33398 10.2991 1.33398 10.6673V12.6673C1.33398 13.1978 1.5447 13.7065 1.91977 14.0815C2.29484 14.4566 2.80355 14.6673 3.33398 14.6673H5.33398C5.70217 14.6673 6.00065 14.3688 6.00065 14.0007C6.00065 13.6325 5.70217 13.334 5.33398 13.334H3.33398C3.15717 13.334 2.9876 13.2637 2.86258 13.1387C2.73756 13.0137 2.66732 12.8441 2.66732 12.6673V10.6673Z" fill="#2D3648"/>
<path d="M14.6673 10.6673C14.6673 10.2991 14.3688 10.0007 14.0007 10.0007C13.6325 10.0007 13.334 10.2991 13.334 10.6673V12.6673C13.334 12.8441 13.2637 13.0137 13.1387 13.1387C13.0137 13.2637 12.8441 13.334 12.6673 13.334H10.6673C10.2991 13.334 10.0007 13.6325 10.0007 14.0007C10.0007 14.3688 10.2991 14.6673 10.6673 14.6673H12.6673C13.1978 14.6673 13.7065 14.4566 14.0815 14.0815C14.4566 13.7065 14.6673 13.1978 14.6673 12.6673V10.6673Z" fill="#2D3648"/>
</g>
</g>
</svg>
